<?xml version="1.0" encoding="utf-8"?>
<!-- Svg Vector Icons : http://www.onlinewebfonts.com/icon -->
<!DOCTYPE svg PUBLIC "-//W3C//DTD SVG 1.1//EN" "http://www.w3.org/Graphics/SVG/1.1/DTD/svg11.dtd">
<svg version="1.1" xmlns="http://www.w3.org/2000/svg" xmlns:xlink="http://www.w3.org/1999/xlink" x="0px" y="0px" viewBox="0 0 256 256" enable-background="new 0 0 256 256" xml:space="preserve">
<metadata> Svg Vector Icons : http://www.onlinewebfonts.com/icon </metadata>
<g><g><g><path fill="#c35379" d="M117.7,10.3c-34.8,4-64.3,26.3-77.5,58.8c-4.8,11.7-6.4,20.5-6.5,33.8c0,9.3,0.1,10.4,1.6,15.8c6.4,23.3,24.6,52.4,54.5,87.3c11,12.8,36.9,40,38.1,40c0.7,0,24.1-24.1,31.8-32.8c31.5-35.6,51.3-65.4,59-88.7c3.2-9.8,3.9-15,3.6-24.7c-0.6-13.7-3.4-24.5-9.9-37.6c-4.9-9.9-9.8-16.7-17.5-24.5c-14.2-14.2-31.6-23.3-51.1-26.7C137.6,10.1,123.6,9.6,117.7,10.3z M104.5,80.6v12h23.3h23.3v-12v-12h12.2h12.2v12v12h5.8h5.8v12v11.9h-5.8h-5.8v12v12h-12.2h-12.2v-12v-12h-23.3h-23.3v12v12H92.3H80.1v-12v-12h-5.8h-5.8v-12v-12h5.8h5.8v-12v-12h12.2h12.2V80.6L104.5,80.6z"/></g></g></g>
</svg>